# xmcd
#
# Track frame offsets:
#	150
#	15690
#	33692
#	49742
#	66240
#	84992
#	100742
#	116117
#	134040
#	150090
#	164192
#	184860
#	203367
#	219550
#	235282
#
# Disc length: 3333 seconds
#
# Revision: 0
# Processed by: cddbd v1.4PL0 Copyright (c) Steve Scherf et al.
# Submitted via: dBpowerAMP V4.0
#
DISCID=d00d030f
DTITLE=Isto Hiltunen - Parhaat CD 2
DYEAR=1900
DGENRE=Pop
TTITLE0=Sytytä lyhty
TTITLE1=Olivia
TTITLE2=Kynttilän liekki
TTITLE3=Alla kuuman auringon
TTITLE4=Kuu ja Maa
TTITLE5=Joki tyyntyy iltaisin
TTITLE6=Alla pinnan
TTITLE7=Valoa ikkunaan
TTITLE8=Emmanuelle
TTITLE9=Mikset mua huomaa
TTITLE10=Rakkauden laulu (live)
TTITLE11=Tähti (live)
TTITLE12=Koivukuja (live)
TTITLE13=Natalie (live)
TTITLE14=Kultainen ketju (live)
EXTD=
EXTT0=
EXTT1=
EXTT2=
EXTT3=
EXTT4=
EXTT5=
EXTT6=
EXTT7=
EXTT8=
EXTT9=
EXTT10=
EXTT11=
EXTT12=
EXTT13=
EXTT14=
PLAYORDER=
